<svg xmlns="http://www.w3.org/2000/svg" width="147.406" height="33.005" viewBox="0 0 147.406 33.005">
  <g id="Logo_Dark" transform="translate(-286 -40)">
    <path id="Subtraction_5" data-name="Subtraction 5" d="M25.92,41.51A16.512,16.512,0,0,1,16.9,38.837l11.778-6.8c4.365-2.52,6.545-4.959,6.481-7.249l.14-1.37.373-4.439a1.763,1.763,0,0,0-.23-1.331.689.689,0,0,0-.535-.214,3.1,3.1,0,0,0-1.408.508L18.624,26.53l.641-4.594a6.352,6.352,0,0,1,2.91-2.9l13.143-7.588a16.506,16.506,0,0,1-9.4,30.059ZM14.974,37.374h0A16.506,16.506,0,0,1,25.889,8.5,16.668,16.668,0,0,1,33.1,10.156L21.434,16.889c-.611.353-1.211.723-1.781,1.1s-1.132.771-1.693,1.192a7.955,7.955,0,0,0-3.536,5.406l-.562,4.979a1.933,1.933,0,0,0,.243,1.441.667.667,0,0,0,.517.21,2.678,2.678,0,0,0,1.23-.437l14.872-8.587-.461,5.278-.045.169a3.534,3.534,0,0,1-1.81,2.011L14.975,37.374Z" transform="translate(276.603 31.495)" fill="#5840ff"/>
    <path id="Path_13163" data-name="Path 13163" d="M3.014-5.17.77-3.586a7.31,7.31,0,0,0,1.408,2A6.736,6.736,0,0,0,4.3-.121,6.437,6.437,0,0,0,6.93.418,6.324,6.324,0,0,0,8.943.1,5.677,5.677,0,0,0,10.67-.825,4.325,4.325,0,0,0,11.88-2.31a4.416,4.416,0,0,0,.44-2A4.483,4.483,0,0,0,12-6.061a4.082,4.082,0,0,0-.88-1.32,5.916,5.916,0,0,0-1.254-.957A8.807,8.807,0,0,0,8.426-9,15.688,15.688,0,0,1,6.49-9.779a3.706,3.706,0,0,1-1.144-.814,1.476,1.476,0,0,1-.374-1,1.327,1.327,0,0,1,.462-1,1.973,1.973,0,0,1,1.386-.429,2.767,2.767,0,0,1,1.254.275,3.507,3.507,0,0,1,.979.726,4.968,4.968,0,0,1,.737,1l2.464-1.364a6.372,6.372,0,0,0-1.111-1.573,5.72,5.72,0,0,0-1.782-1.254,6,6,0,0,0-2.541-.5,6.259,6.259,0,0,0-2.585.517,4.339,4.339,0,0,0-1.826,1.474,3.865,3.865,0,0,0-.671,2.277,3.937,3.937,0,0,0,.418,1.881,4.463,4.463,0,0,0,1.056,1.32,6.288,6.288,0,0,0,1.353.88q.715.341,1.265.539,1.034.4,1.749.737A3.1,3.1,0,0,1,8.657-5.3,1.774,1.774,0,0,1,9.02-4.136a1.612,1.612,0,0,1-.594,1.32,2.36,2.36,0,0,1-1.54.484,3.347,3.347,0,0,1-1.518-.352,4.422,4.422,0,0,1-1.287-.99A8.12,8.12,0,0,1,3.014-5.17Zm11.154.11A5.165,5.165,0,0,0,14.905-2.3a5.042,5.042,0,0,0,2,1.859,6.114,6.114,0,0,0,2.871.66,6.114,6.114,0,0,0,2.871-.66,5.042,5.042,0,0,0,2-1.859,5.165,5.165,0,0,0,.737-2.761,5.15,5.15,0,0,0-.737-2.772,5.068,5.068,0,0,0-2-1.848,6.114,6.114,0,0,0-2.871-.66,6.114,6.114,0,0,0-2.871.66,5.068,5.068,0,0,0-2,1.848A5.15,5.15,0,0,0,14.168-5.06Zm2.9,0a3.1,3.1,0,0,1,.363-1.518,2.552,2.552,0,0,1,.979-1.012,2.7,2.7,0,0,1,1.364-.352,2.7,2.7,0,0,1,1.364.352,2.552,2.552,0,0,1,.979,1.012,3.1,3.1,0,0,1,.363,1.518,3.036,3.036,0,0,1-.363,1.507,2.651,2.651,0,0,1-.979,1.012,2.637,2.637,0,0,1-1.364.363,2.637,2.637,0,0,1-1.364-.363,2.651,2.651,0,0,1-.979-1.012A3.036,3.036,0,0,1,17.072-5.06Zm12.826,0a2.893,2.893,0,0,1,.4-1.518,2.916,2.916,0,0,1,1.067-1.045,2.931,2.931,0,0,1,1.485-.385,4.006,4.006,0,0,1,1.232.2,4.191,4.191,0,0,1,1.133.561,2.507,2.507,0,0,1,.781.847V-9.328a3.882,3.882,0,0,0-1.375-.737,6.384,6.384,0,0,0-1.969-.275,6.247,6.247,0,0,0-2.893.66,5.032,5.032,0,0,0-2.024,1.848,5.15,5.15,0,0,0-.737,2.772A5.165,5.165,0,0,0,27.731-2.3,5.006,5.006,0,0,0,29.755-.44a6.247,6.247,0,0,0,2.893.66,6.384,6.384,0,0,0,1.969-.275,3.689,3.689,0,0,0,1.375-.759V-3.74a2.588,2.588,0,0,1-.759.847,4.083,4.083,0,0,1-1.111.572,3.944,3.944,0,0,1-1.276.209,3,3,0,0,1-1.485-.374A2.832,2.832,0,0,1,30.294-3.52,2.935,2.935,0,0,1,29.9-5.06Zm8.69-8.976a1.487,1.487,0,0,0,.506,1.144,1.733,1.733,0,0,0,1.21.462,1.694,1.694,0,0,0,1.2-.462,1.5,1.5,0,0,0,.5-1.144,1.493,1.493,0,0,0-.5-1.155,1.717,1.717,0,0,0-1.2-.451,1.757,1.757,0,0,0-1.21.451A1.478,1.478,0,0,0,38.588-14.036ZM38.9-10.12V0h2.772V-10.12Zm8.03,6.974a1.3,1.3,0,0,1,.2-.737,1.273,1.273,0,0,1,.616-.462,2.974,2.974,0,0,1,1.078-.165,5.394,5.394,0,0,1,1.551.22,4.266,4.266,0,0,1,1.331.66V-4.95a2.646,2.646,0,0,0-.726-.55,5.361,5.361,0,0,0-1.243-.484,6.6,6.6,0,0,0-1.7-.2,4.462,4.462,0,0,0-2.926.858,2.87,2.87,0,0,0-1.034,2.332,3,3,0,0,0,.5,1.749A3.168,3.168,0,0,0,45.87-.154,4.164,4.164,0,0,0,47.63.22,4.836,4.836,0,0,0,49.4-.11a3.3,3.3,0,0,0,1.386-.99,2.49,2.49,0,0,0,.539-1.628l-.352-1.32a2.262,2.262,0,0,1-.33,1.243,2.223,2.223,0,0,1-.858.792,2.533,2.533,0,0,1-1.188.275,2.128,2.128,0,0,1-.847-.165,1.371,1.371,0,0,1-.6-.484A1.3,1.3,0,0,1,46.926-3.146Zm-1.1-4.114a5.052,5.052,0,0,1,.682-.374,5.658,5.658,0,0,1,1.1-.374,5.7,5.7,0,0,1,1.342-.154,3.657,3.657,0,0,1,.836.088,1.8,1.8,0,0,1,.649.286,1.206,1.206,0,0,1,.407.495,1.753,1.753,0,0,1,.132.715V0h2.75V-7.172a2.711,2.711,0,0,0-.572-1.749,3.544,3.544,0,0,0-1.584-1.089,6.636,6.636,0,0,0-2.31-.374A7.969,7.969,0,0,0,46.706-10a13.231,13.231,0,0,0-1.936.8Zm10.758-9.9V0h2.86V-17.16Zm6.16,1.76V0h3.212V-15.4ZM67.98,0a9.038,9.038,0,0,0,4.235-.946,6.9,6.9,0,0,0,2.827-2.673A7.928,7.928,0,0,0,76.054-7.7a7.928,7.928,0,0,0-1.012-4.081,6.9,6.9,0,0,0-2.827-2.673A9.038,9.038,0,0,0,67.98-15.4H64.768v2.86h3.1a6.529,6.529,0,0,1,1.914.275,4.281,4.281,0,0,1,1.584.869,4.046,4.046,0,0,1,1.067,1.507A5.619,5.619,0,0,1,72.82-7.7a5.619,5.619,0,0,1-.385,2.189A4.046,4.046,0,0,1,71.368-4a4.282,4.282,0,0,1-1.584.869,6.529,6.529,0,0,1-1.914.275h-3.1V0Zm12.5-3.146a1.3,1.3,0,0,1,.2-.737,1.273,1.273,0,0,1,.616-.462,2.974,2.974,0,0,1,1.078-.165,5.394,5.394,0,0,1,1.551.22,4.267,4.267,0,0,1,1.331.66V-4.95a2.646,2.646,0,0,0-.726-.55,5.361,5.361,0,0,0-1.243-.484,6.6,6.6,0,0,0-1.705-.2,4.462,4.462,0,0,0-2.926.858,2.87,2.87,0,0,0-1.034,2.332,3,3,0,0,0,.5,1.749A3.168,3.168,0,0,0,79.42-.154,4.164,4.164,0,0,0,81.18.22a4.836,4.836,0,0,0,1.771-.33,3.3,3.3,0,0,0,1.386-.99,2.49,2.49,0,0,0,.539-1.628l-.352-1.32a2.262,2.262,0,0,1-.33,1.243,2.223,2.223,0,0,1-.858.792,2.533,2.533,0,0,1-1.188.275A2.128,2.128,0,0,1,81.3-1.9a1.371,1.371,0,0,1-.605-.484A1.3,1.3,0,0,1,80.476-3.146Zm-1.1-4.114a5.052,5.052,0,0,1,.682-.374,5.658,5.658,0,0,1,1.1-.374A5.7,5.7,0,0,1,82.5-8.162a3.657,3.657,0,0,1,.836.088,1.8,1.8,0,0,1,.649.286,1.206,1.206,0,0,1,.407.495,1.753,1.753,0,0,1,.132.715V0h2.75V-7.172A2.711,2.711,0,0,0,86.7-8.921a3.544,3.544,0,0,0-1.584-1.089,6.636,6.636,0,0,0-2.31-.374A7.969,7.969,0,0,0,80.256-10a13.231,13.231,0,0,0-1.936.8ZM90.64-3.5,89.254-1.716A9.069,9.069,0,0,0,90.541-.693a6.486,6.486,0,0,0,1.606.759,6.417,6.417,0,0,0,1.969.286A4.063,4.063,0,0,0,96.844-.5a2.945,2.945,0,0,0,.99-2.365,2.476,2.476,0,0,0-.418-1.5,3.385,3.385,0,0,0-1.111-.957A11.424,11.424,0,0,0,94.8-6.006q-.66-.286-1.177-.484a2.475,2.475,0,0,1-.792-.451.772.772,0,0,1-.275-.583.633.633,0,0,1,.275-.561,1.335,1.335,0,0,1,.759-.187,3.346,3.346,0,0,1,1.485.374,4.438,4.438,0,0,1,1.309.968l1.254-1.76a5.241,5.241,0,0,0-1.122-.847,6.5,6.5,0,0,0-1.386-.583,5.667,5.667,0,0,0-1.606-.22,5.057,5.057,0,0,0-1.837.319,2.956,2.956,0,0,0-1.309.946,2.427,2.427,0,0,0-.484,1.529A2.619,2.619,0,0,0,90.321-6a3.217,3.217,0,0,0,1.089.968,10.415,10.415,0,0,0,1.364.627,11.9,11.9,0,0,1,1.232.462,2.263,2.263,0,0,1,.737.495A.955.955,0,0,1,95-2.772a.849.849,0,0,1-.308.693,1.353,1.353,0,0,1-.88.253A2.8,2.8,0,0,1,92.873-2a4.9,4.9,0,0,1-1.045-.539A9.3,9.3,0,0,1,90.64-3.5ZM102.872-17.16h-2.86V0h2.86Zm3.674,11V0h2.86V-6.578a5.366,5.366,0,0,0-.374-2.123,2.675,2.675,0,0,0-1.144-1.309,3.908,3.908,0,0,0-1.958-.44,3.4,3.4,0,0,0-2,.572,3.488,3.488,0,0,0-1.221,1.54A5.57,5.57,0,0,0,102.3-6.16h.572a2.341,2.341,0,0,1,.242-1.1,1.7,1.7,0,0,1,.7-.715,2.163,2.163,0,0,1,1.056-.253,1.486,1.486,0,0,1,1.287.528A2.594,2.594,0,0,1,106.546-6.16Z" transform="translate(324 65.16)" fill="#090e30"/>
  </g>
</svg>
