<svg xmlns="http://www.w3.org/2000/svg" width="135" height="30.05" viewBox="0 0 135 30.05">
  <g id="Group_11173" data-name="Group 11173" transform="translate(-30 -21)">
    <path id="Path_5603" data-name="Path 5603" d="M0,13.4a1.421,1.421,0,0,0,.6.2c3.9,1.8,7.7,3.6,11.5,5.3.4.2.6.2,1-.2,1.5-1.6,3-3.1,4.5-4.6a.52.52,0,0,1,.4-.2,18.646,18.646,0,0,1-1,2,2.18,2.18,0,0,0,.2,3c.6.7,1,1.6,1.7,2.3.5-4.5.9-9,1.4-13.6-3.4,2.4-6.7,4.7-10,7l-.1-.1c.6-.8,1.3-1.7,2-2.6C8.7,9.1,5,6.4,1.3,3.6A9.656,9.656,0,0,1,8.3,0a9.542,9.542,0,0,1,7.3,2.7,24.258,24.258,0,0,1,2-1.4A9.649,9.649,0,0,1,31.9,7.8a9.021,9.021,0,0,1-2.4,8.4c-3,3.1-6.1,6.1-9.1,9.2-1.4,1.4-2.9,2.9-4.3,4.4-.3.3-.5.3-.8,0L2.4,16.9A22.052,22.052,0,0,1,.2,14c-.1-.1-.1-.3-.2-.4Z" transform="translate(30 21.025)" fill="#0af"/>
    <text id="SocialDash" transform="translate(64 22)" fill="#fff" font-size="20" font-family="Jost-SemiBold, Jost" font-weight="600"><tspan x="0" y="21">SocialDash</tspan></text>
  </g>
</svg>
