<svg xmlns="http://www.w3.org/2000/svg" width="448" height="512" viewBox="0 0 448 512">
  <g id="Logo_Dark" data-name="Logo Dark" transform="translate(346.5 -89)" opacity="0.04">
    <path id="Subtraction_1" data-name="Subtraction 1" d="M368,512H80A80.091,80.091,0,0,1,0,432V160H96V128a128,128,0,0,1,256,0v32h96V432A80.091,80.091,0,0,1,368,512ZM221.747,268.672c-24.049,0-44.815,7.907-61.722,23.5s-25.485,34.479-25.485,56.154V382.17c0,24.317,9.044,44.217,26.88,59.149s41.221,22.49,69.491,22.49c19.815,0,36.632-3.682,49.984-10.944C294.239,445.587,301,438.15,301,430.758c0-4.758-1.878-9.784-5.581-14.938s-8.385-7.757-13.939-7.757c-2.909,0-9.339,2.545-19.11,7.565a65.123,65.123,0,0,1-29.875,7.565c-14,0-25.384-3.553-33.843-10.56s-12.749-16.305-12.749-27.674v-5.978h80.845a93.041,93.041,0,0,0,13.542-.781,37.92,37.92,0,0,0,11.354-3.955c4.1-2.1,7.181-5.744,9.152-10.842,1.987-5.1,3-11.663,3-19.52,0-21.5-8.109-39.6-24.1-53.811S244.2,268.672,221.747,268.672ZM320,200a24,24,0,1,0,24,24A24.027,24.027,0,0,0,320,200Zm-192,0a24,24,0,1,0,24,24A24.027,24.027,0,0,0,128,200ZM224,64a64.072,64.072,0,0,0-64,64v32H288V128A64.072,64.072,0,0,0,224,64Zm20.058,284.723h-58.15V338.3a25.418,25.418,0,0,1,10.355-21.018,38.789,38.789,0,0,1,24.294-7.987c9.78,0,18.156,2.752,24.9,8.179a26.093,26.093,0,0,1,10.15,21.2c0,3.949-.87,6.64-2.586,8S248.288,348.723,244.058,348.723Z" transform="translate(-346.5 89)" fill="currentColor"/>
  </g>
</svg>
